<svg xmlns="http://www.w3.org/2000/svg" version="1.1" xmlns:xlink="http://www.w3.org/1999/xlink" xmlns:svgjs="http://svgjs.dev/svgjs" width="128" height="128" viewBox="0 0 128 128"><g transform="matrix(0.5255102040816326,0,0,0.5255102040816326,30.410277441265983,12.760752631578946)"><svg viewBox="0 0 62 95" data-background-color="#ffffff" preserveAspectRatio="xMidYMid meet" height="196" width="128" xmlns="http://www.w3.org/2000/svg" xmlns:xlink="http://www.w3.org/1999/xlink"><g id="tight-bounds" transform="matrix(1,0,0,1,-0.03957004446785106,-0.24049999999999727)"><svg viewBox="0 0 62.079140088935716 95.481" height="95.481" width="62.079140088935716"><g><svg viewBox="0 0 62.079140088935716 95.481" height="95.481" width="62.079140088935716"><g><svg viewBox="0 0 62.079140088935716 95.481" height="95.481" width="62.079140088935716"><g id="textblocktransform"><svg viewBox="0 0 62.079140088935716 95.481" height="95.481" width="62.079140088935716" id="textblock"><g><svg viewBox="0 0 62.079140088935716 95.481" height="95.481" width="62.079140088935716"><g><svg viewBox="0 0 62.079140088935716 95.481" height="95.481" width="62.079140088935716"><g><svg xmlns:x="http://ns.adobe.com/Extensibility/1.0/" xmlns:i="http://ns.adobe.com/AdobeIllustrator/10.0/" xmlns:graph="http://ns.adobe.com/Graphs/1.0/" xmlns="http://www.w3.org/2000/svg" xmlns:xlink="http://www.w3.org/1999/xlink" xmlns:a="http://ns.adobe.com/AdobeSVGViewerExtensions/3.0/" version="1.0" x="0" y="0" viewBox="19.252 0.461 64.18700000000001 98.723" enable-background="new 0 0 100 100" xml:space="preserve" height="95.481" width="62.079140088935716" class="icon-icon-0" data-fill-palette-color="accent" id="icon-0"><path d="M34.343 91.469v6.038c0 0.926-0.751 1.677-1.677 1.677h-3.721c-0.925 0-1.676-0.751-1.676-1.677v-8.042l-0.98-0.276v-7.934h38.494H76.31v7.934l-0.889 0.252v8.066c0 0.926-0.751 1.677-1.676 1.677h-3.721c-0.925 0-1.677-0.751-1.677-1.677v-6.063l-2.25 0.637H36.502L34.343 91.469zM26.288 40.056V26.822h0.468c0.993 0.141 1.778 1.021 1.778 2.095v11.139H26.288zM76.307 26.822v13.233h-2.15V28.917c0-1.074 0.785-1.954 1.777-2.095H76.307zM24.253 53.487l9.171 2.048V42.488l-7.343-0.067c0.124 0.182 0.196 0.398 0.196 0.635v9.313c0 0.619-0.501 1.118-1.118 1.118H24.253zM33.424 56.682l-10.867-2.427c-0.409-0.091-0.512-0.478-0.395-0.768h-1.793c-0.617 0-1.117-0.499-1.117-1.118v-9.313c0-0.617 0.5-1.117 1.117-1.117h1.758c-0.052-0.312 0.134-0.669 0.558-0.666l10.739 0.096v-1.312h-2.375V28.917c0-2.396-1.775-4.35-4.146-4.609h-0.615V0.461h50.019v23.847h-0.52c-2.369 0.26-4.145 2.214-4.145 4.609v11.139h-2.375v1.312l10.739-0.096c0.423-0.003 0.608 0.354 0.556 0.666h1.759c0.618 0 1.118 0.5 1.118 1.117v9.313c0 0.619-0.5 1.118-1.118 1.118h-1.794c0.118 0.29 0.016 0.677-0.393 0.768l-10.867 2.427v5.12h2.375V67.3h2.514v-5.498h2.15v18.242H26.288V61.802h2.246V67.3h2.515v-5.498h2.375V56.682zM69.268 42.488v13.047l9.17-2.048h-0.905c-0.619 0-1.119-0.499-1.119-1.118v-9.313c0-0.236 0.073-0.453 0.196-0.635L69.268 42.488zM40.529 55.009v23.8h21.713v-23.8H40.529zM63.406 73.549v1.981c0 0.618 0.501 1.12 1.119 1.12h8.07c0.617 0 1.116-0.502 1.116-1.12v-1.981c0-0.617-0.499-1.116-1.116-1.116h-8.07C63.907 72.433 63.406 72.932 63.406 73.549zM28.978 73.549v1.981c0 0.618 0.5 1.12 1.117 1.12h8.071c0.617 0 1.119-0.502 1.119-1.12v-1.981c0-0.617-0.502-1.116-1.119-1.116h-8.071C29.478 72.433 28.978 72.932 28.978 73.549zM66.695 51.562V41.69c0-0.927-0.749-1.677-1.676-1.677H37.734c-0.926 0-1.677 0.75-1.677 1.677v9.872c0 0.925 0.751 1.676 1.677 1.676H65.02C65.946 53.238 66.695 52.487 66.695 51.562zM56.806 58.46h3.82v19.169h-3.82V58.46zM42.062 58.46h3.819v19.169h-3.819V58.46zM46.977 58.46h3.82v19.169h-3.82V58.46zM51.891 58.46h3.821v19.169h-3.821V58.46z" fill="#ffffff" data-fill-palette-color="accent"></path></svg></g></svg></g></svg></g></svg></g></svg></g><g></g></svg></g><defs></defs></svg><rect width="62.079140088935716" height="95.481" fill="none" stroke="none" visibility="hidden"></rect></g></svg></g></svg>