<svg xmlns="http://www.w3.org/2000/svg" version="1.1" xmlns:xlink="http://www.w3.org/1999/xlink" xmlns:svgjs="http://svgjs.dev/svgjs" width="128" height="128" viewBox="0 0 128 128"><g transform="matrix(0.5255102040816326,0,0,0.5255102040816326,30.41027838327461,12.760752631578946)"><svg viewBox="0 0 62 95" data-background-color="#ffffff" preserveAspectRatio="xMidYMid meet" height="196" width="128" xmlns="http://www.w3.org/2000/svg" xmlns:xlink="http://www.w3.org/1999/xlink"><g id="tight-bounds" transform="matrix(1,0,0,1,-0.039570912739151254,-0.24049999999999727)"><svg viewBox="0 0 62.079141825478295 95.481" height="95.481" width="62.079141825478295"><g><svg viewBox="0 0 62.079141825478295 95.481" height="95.481" width="62.079141825478295"><g><svg viewBox="0 0 62.079141825478295 95.481" height="95.481" width="62.079141825478295"><g id="textblocktransform"><svg viewBox="0 0 62.079141825478295 95.481" height="95.481" width="62.079141825478295" id="textblock"><g><svg viewBox="0 0 62.079141825478295 95.481" height="95.481" width="62.079141825478295"><g><svg viewBox="0 0 62.079141825478295 95.481" height="95.481" width="62.079141825478295"><g><svg xmlns:x="http://ns.adobe.com/Extensibility/1.0/" xmlns:i="http://ns.adobe.com/AdobeIllustrator/10.0/" xmlns:graph="http://ns.adobe.com/Graphs/1.0/" xmlns="http://www.w3.org/2000/svg" xmlns:xlink="http://www.w3.org/1999/xlink" xmlns:a="http://ns.adobe.com/AdobeSVGViewerExtensions/3.0/" version="1.0" x="0" y="0" viewBox="19.251998204494143 0.461 64.18700179550585 98.723" enable-background="new 0 0 100 100" xml:space="preserve" height="95.481" width="62.079141825478295" class="icon-icon-0" data-fill-palette-color="accent" id="icon-0"><path d="M34.343 91.469V97.507C34.343 98.433 33.592 99.184 32.666 99.184H28.945A1.677 1.677 0 0 1 27.269 97.507V89.465L26.289 89.189V81.255H76.31V89.189L75.421 89.441V97.507C75.421 98.433 74.67 99.184 73.745 99.184H70.024A1.68 1.68 0 0 1 68.347 97.507V91.444L66.097 92.081H36.502zM26.288 40.056V26.822H26.756C27.749 26.963 28.534 27.843 28.534 28.917V40.056zM76.307 26.822V40.055H74.157V28.917C74.157 27.843 74.942 26.963 75.934 26.822zM24.253 53.487L33.424 55.535V42.488L26.081 42.421C26.205 42.603 26.277 42.819 26.277 43.056V52.369C26.277 52.988 25.776 53.487 25.159 53.487zM33.424 56.682L22.557 54.255C22.148 54.164 22.045 53.777 22.162 53.487H20.369A1.116 1.116 0 0 1 19.252 52.369V43.056C19.252 42.439 19.752 41.939 20.369 41.939H22.127C22.075 41.627 22.261 41.27 22.685 41.273L33.424 41.369V40.057H31.049V28.917C31.049 26.521 29.274 24.567 26.903 24.308H26.288V0.461H76.307V24.308H75.787C73.418 24.568 71.642 26.522 71.642 28.917V40.056H69.267V41.368L80.006 41.272C80.429 41.269 80.614 41.626 80.562 41.938H82.321C82.939 41.938 83.439 42.438 83.439 43.055V52.368C83.439 52.987 82.939 53.486 82.321 53.486H80.527C80.645 53.776 80.543 54.163 80.134 54.254L69.267 56.681V61.801H71.642V67.3H74.156V61.802H76.306V80.044H26.288V61.802H28.534V67.3H31.049V61.802H33.424zM69.268 42.488V55.535L78.438 53.487H77.533A1.117 1.117 0 0 1 76.414 52.369V43.056C76.414 42.82 76.487 42.603 76.61 42.421zM40.529 55.009V78.809H62.242V55.009zM63.406 73.549V75.53C63.406 76.148 63.907 76.65 64.525 76.65H72.595C73.212 76.65 73.711 76.148 73.711 75.53V73.549C73.711 72.932 73.212 72.433 72.595 72.433H64.525C63.907 72.433 63.406 72.932 63.406 73.549M28.978 73.549V75.53C28.978 76.148 29.478 76.65 30.095 76.65H38.166A1.12 1.12 0 0 0 39.285 75.53V73.549C39.285 72.932 38.783 72.433 38.166 72.433H30.095C29.478 72.433 28.978 72.932 28.978 73.549M66.695 51.562V41.69C66.695 40.763 65.946 40.013 65.019 40.013H37.734C36.808 40.013 36.057 40.763 36.057 41.69V51.562C36.057 52.487 36.808 53.238 37.734 53.238H65.02C65.946 53.238 66.695 52.487 66.695 51.562M56.806 58.46H60.626V77.629H56.806zM42.062 58.46H45.881V77.629H42.062zM46.977 58.46H50.797V77.629H46.977zM51.891 58.46H55.712V77.629H51.891z" fill="#000000" data-fill-palette-color="accent"></path></svg></g></svg></g></svg></g></svg></g></svg></g><g></g></svg></g><defs></defs></svg><rect width="62.079141825478295" height="95.481" fill="none" stroke="none" visibility="hidden"></rect></g></svg></g></svg>